# xmcd
#
# Track frame offsets:
#	150
#	13800
#	27540
#	40025
#	53927
#	69272
#	84555
#	98957
#	114370
#	127525
#	141727
#	158452
#	172892
#	188070
#	203342
#	214605
#
# Disc length: 3037 seconds
#
# Revision: 1
# Processed by: cddbd v1.5.1PL0 Copyright (c) Steve Scherf et al.
# Submitted via: CDex 1.50Beta5
#
DISCID=ca0bdb10
DTITLE=あべ静江 - あべ静江/プレイバック・シリーズ
DYEAR=1987
DGENRE=Pop
TTITLE0=コーヒーショップで
TTITLE1=みずいろの手紙
TTITLE2=突然の愛
TTITLE3=透きとおった哀しみ
TTITLE4=秋日和
TTITLE5=生まれたままの姿で
TTITLE6=雨をみていた人
TTITLE7=私は小鳥
TTITLE8=心の音
TTITLE9=いたずら書き
TTITLE10=長距離電話
TTITLE11=モジリアンの少女
TTITLE12=愛の記念日
TTITLE13=もの想い
TTITLE14=恋人たちのいる舗道
TTITLE15=ひまわり
EXTD=
EXTT0=
EXTT1=
EXTT2=
EXTT3=
EXTT4=
EXTT5=
EXTT6=
EXTT7=
EXTT8=
EXTT9=
EXTT10=
EXTT11=
EXTT12=
EXTT13=
EXTT14=
EXTT15=
PLAYORDER=
